<?xml version="1.0" encoding="UTF-8"?>
<svg version="1.1" xmlns="http://www.w3.org/2000/svg" width="512" height="512">
<path d="M0 0 C4.83585502 4.98078119 7.92497948 11.02663768 11.2421875 17.06640625 C11.94330585 18.32172164 12.64580349 19.57626756 13.34960938 20.83007812 C14.42458858 22.74538707 15.4987878 24.66107957 16.5687561 26.57919312 C19.8592933 32.47621827 23.25766695 38.30728309 26.6796875 44.12890625 C31.7375811 52.76294231 36.72576835 61.43498633 41.6796875 70.12890625 C47.21954683 79.85015131 52.81343682 89.53785493 58.46313477 99.19580078 C64.61735492 109.7197525 70.70338746 120.28270762 76.78857422 130.84667969 C79.91648898 136.27550567 83.04827198 141.70209906 86.1796875 147.12890625 C87.42970629 149.29556208 88.67970628 151.46222875 89.9296875 153.62890625 C90.5484375 154.70140625 91.1671875 155.77390625 91.8046875 156.87890625 C103.6796875 177.46223958 115.5546875 198.04557292 127.4296875 218.62890625 C128.04932373 219.70269531 128.66895996 220.77648437 129.30737305 221.8828125 C130.54928667 224.03595939 131.79034387 226.18960049 133.03051758 228.34375 C135.92920477 233.37632542 138.83565687 238.40382433 141.77401733 243.41333008 C142.80852062 245.17795518 143.84021549 246.94419264 144.87109375 248.7109375 C146.16113249 250.91990794 147.45635391 253.12586346 148.7578125 255.328125 C155.72036224 267.27922687 160.35887608 277.79554505 156.7421875 291.81640625 C153.33867536 300.45242071 146.29462336 306.49851903 138.0390625 310.2890625 C133.79373202 311.80023146 129.8040536 312.25426452 125.31346607 312.26033401 C124.24375877 312.26417516 123.17405147 312.2680163 122.0719288 312.27197385 C120.31806164 312.27067412 120.31806164 312.27067412 118.52876282 312.26934814 C117.28197933 312.27231927 116.03519584 312.27529039 114.75063103 312.27835155 C111.29234819 312.28640826 107.83408612 312.28821038 104.37579501 312.28894901 C100.64490811 312.29080189 96.91403193 312.29835042 93.18315125 312.30508423 C85.02601273 312.31865874 76.86887913 312.32469093 68.7117312 312.32909489 C63.61681721 312.33185886 58.52190512 312.3360965 53.42699242 312.34059906 C39.31626791 312.35279069 25.20554492 312.36309014 11.09481525 312.36647415 C9.74046853 312.3668035 9.74046853 312.3668035 8.35876126 312.3671395 C7.00120278 312.36746692 7.00120278 312.36746692 5.61621886 312.36780095 C3.78231323 312.36824441 1.94840759 312.36869098 0.11450195 312.36914062 C-1.25001431 312.36947277 -1.25001431 312.36947277 -2.64209656 312.36981162 C-17.37872621 312.37375877 -32.11530639 312.39121074 -46.85191693 312.41450015 C-61.98751158 312.4382267 -77.12308141 312.4506766 -92.25869495 312.45184207 C-100.75445266 312.45275811 -109.25014591 312.45849247 -117.74588585 312.47666168 C-124.98088787 312.49208028 -132.2158055 312.49717277 -139.45082083 312.48892358 C-143.14016849 312.48502326 -146.8293463 312.48591625 -150.51867294 312.49998093 C-154.52406047 312.51511044 -158.52906715 312.50683508 -162.5344696 312.49639893 C-164.27160635 312.50848353 -164.27160635 312.50848353 -166.04383677 312.52081227 C-176.58587149 312.456651 -185.53027121 310.65222779 -193.35546875 303.1875 C-200.99789406 295.21219228 -202.60807144 288.50788947 -202.81640625 277.6328125 C-201.4378767 267.89626916 -195.88377663 259.48436323 -191.0078125 251.12890625 C-190.29438821 249.89504943 -189.58159085 248.66082992 -188.86938477 247.42626953 C-187.40668606 244.89311926 -185.94034164 242.36213803 -184.47070312 239.83300781 C-182.45946865 236.37111698 -180.45867513 232.90329422 -178.4609375 229.43359375 C-175.37174247 224.0685552 -172.27657894 218.70699639 -169.17919922 213.34667969 C-166.05706645 207.9421998 -162.93890046 202.53543213 -159.8203125 197.12890625 C-158.57033128 194.96222875 -157.32033129 192.79556208 -156.0703125 190.62890625 C-155.4515625 189.55640625 -154.8328125 188.48390625 -154.1953125 187.37890625 C-152.3203125 184.12890625 -150.4453125 180.87890625 -148.5703125 177.62890625 C-147.95148193 176.55624512 -147.33265137 175.48358398 -146.69506836 174.37841797 C-145.44595732 172.21333554 -144.19677121 170.04829643 -142.94750977 167.88330078 C-139.80828941 162.44274919 -136.67040687 157.00143409 -133.53515625 151.55859375 C-127.51283921 141.10684426 -121.47361913 130.66591077 -115.3828125 120.25390625 C-110.30756127 111.57628384 -105.29772483 102.86285057 -100.3203125 94.12890625 C-94.7802952 84.40775008 -89.18656441 74.71995967 -83.53686523 65.06201172 C-79.29413549 57.80678167 -75.0814636 50.53472545 -70.8828125 43.25390625 C-70.26591553 42.1872876 -69.64901855 41.12066895 -69.01342773 40.02172852 C-66.08225906 34.94833197 -63.16573367 29.86800696 -60.29881287 24.75805664 C-59.29387247 22.96864522 -58.28426337 21.18195015 -57.27319336 19.39599609 C-56.00811527 17.15810949 -54.751832 14.915219 -53.50610352 12.66650391 C-47.32946005 1.78298383 -40.62113606 -5.04040832 -28.4453125 -8.74609375 C-17.39049129 -9.1882866 -8.36129468 -7.62799209 0 0 Z " fill="#EE404C" transform="translate(278.3203125,98.87109375)"/>
<path d="M0 0 C3.76453326 2.80298982 5.72538986 5.66509176 6.62109375 10.20703125 C6.74130259 13.16891687 6.80933317 16.1086022 6.82983398 19.07128906 C6.84450966 20.4135128 6.84450966 20.4135128 6.85948181 21.78285217 C6.88937749 24.74193851 6.91080455 27.70097987 6.9296875 30.66015625 C6.93625933 31.67253105 6.94283115 32.68490585 6.94960213 33.72795868 C6.98216947 39.0863658 7.00662732 44.44475324 7.02612305 49.80322266 C7.04393635 54.23222823 7.0787613 58.66059717 7.12866211 63.08935547 C7.18891114 68.44327304 7.21960496 73.79660034 7.22929573 79.15084076 C7.23784264 81.18737408 7.25664181 83.22389195 7.28603935 85.26023102 C7.32504726 88.11591488 7.32597663 90.96930726 7.31811523 93.82519531 C7.33811584 94.65976761 7.35811646 95.4943399 7.37872314 96.35420227 C7.2992945 102.80913122 5.01192493 106.5535834 0.62109375 111.20703125 C-3.34296072 114.47040179 -7.19932254 114.78645357 -12.19140625 114.76953125 C-12.90192139 114.76783936 -13.61243652 114.76614746 -14.34448242 114.7644043 C-19.67052023 114.58171698 -22.94240706 113.51120788 -26.8984375 110.0078125 C-31.26245838 104.69959712 -31.81532639 100.89078015 -31.76708984 94.21337891 C-31.7723468 93.31681076 -31.77760376 92.42024261 -31.78302002 91.49650574 C-31.79620449 88.53785691 -31.78748585 85.5797479 -31.77734375 82.62109375 C-31.77936528 80.5599253 -31.78227739 78.49875755 -31.78604126 76.43759155 C-31.79046281 72.11848132 -31.7840402 67.79955732 -31.77001953 63.48046875 C-31.75294934 57.9534855 -31.76275631 52.42694001 -31.78073692 46.89997292 C-31.79159757 42.64308396 -31.78811756 38.3862981 -31.78035355 34.12940598 C-31.77835674 32.09211551 -31.78079253 30.05481558 -31.78779221 28.01753616 C-31.79544174 25.16459772 -31.78375239 22.31235921 -31.76708984 19.45947266 C-31.77316254 18.62287613 -31.77923523 17.7862796 -31.78549194 16.92433167 C-31.72214696 11.04685994 -30.82338417 6.11433033 -26.9140625 1.46484375 C-19.274176 -4.41199202 -8.3911855 -4.93701766 0 0 Z " fill="#FEF6EC" transform="translate(268.37890625,188.79296875)"/>
<path d="M0 0 C5.10780933 2.69180448 8.56065878 7.00198163 10.74609375 12.265625 C11.40337986 17.75319974 11.50217904 22.66621382 9.12109375 27.703125 C5.02472169 32.12289485 0.61220695 36.77438619 -5.62109375 37.56640625 C-10.93037659 37.59121598 -14.79145261 37.43892537 -19.25390625 34.265625 C-24.21470308 29.2327834 -27.39172742 25.84721247 -27.62890625 18.640625 C-27.56287382 12.514283 -26.35199137 8.80391364 -22.25390625 4.265625 C-21.78082031 3.73839844 -21.30773437 3.21117187 -20.8203125 2.66796875 C-15.23306996 -2.33407631 -6.87440657 -2.23984131 0 0 Z " fill="#FEF4EA" transform="translate(264.25390625,331.734375)"/>
</svg>
